<svg xmlns="http://www.w3.org/2000/svg" viewBox="0 0 32 40" x="0px" y="0px"><title>Repeat All</title><g data-name="9 Repeat All"><path d="M30,16A10,10,0,0,1,20,26H14.41l2.3,2.29a1,1,0,0,1,0,1.42,1,1,0,0,1-1.42,0l-4-4a1,1,0,0,1,0-1.42l4-4a1,1,0,0,1,1.42,1.42L14.41,24H20a8,8,0,0,0,6.08-13.19,1,1,0,0,1,1.52-1.3A9.93,9.93,0,0,1,30,16ZM12,8h5.59l-2.3,2.29a1,1,0,0,0,0,1.42,1,1,0,0,0,1.42,0l4-4a1,1,0,0,0,.21-.33,1,1,0,0,0,0-.76,1,1,0,0,0-.21-.33l-4-4a1,1,0,0,0-1.42,1.42L17.59,6H12A10,10,0,0,0,4.4,22.49a1,1,0,0,0,1.52-1.3A8,8,0,0,1,12,8Z"/></g></svg>