<svg xmlns="http://www.w3.org/2000/svg" viewBox="0 0 32 40" x="0px" y="0px"><title>Dont Repeat</title><g data-name="10 Dont Repeat"><path d="M27.6,9.51A10,10,0,0,1,20,26H14.41l2.3,2.29a1,1,0,0,1,0,1.42,1,1,0,0,1-1.42,0l-4-4a1,1,0,0,1,0-1.42l4-4a1,1,0,0,1,1.42,1.42L14.41,24H20a8,8,0,0,0,6.08-13.19,1,1,0,0,1,1.52-1.3ZM5.16,22.84a1,1,0,0,0,.76-1.65A8,8,0,0,1,12,8h5.59l-2.3,2.29a1,1,0,0,0,0,1.42,1,1,0,0,0,1.42,0l4-4a1,1,0,0,0,.21-.33,1,1,0,0,0,0-.76,1,1,0,0,0-.21-.33l-4-4a1,1,0,0,0-1.42,1.42L17.59,6H12A10,10,0,0,0,4.4,22.49,1,1,0,0,0,5.16,22.84ZM29.71,2.29a1,1,0,0,0-1.42,0l-26,26a1,1,0,0,0,0,1.42,1,1,0,0,0,1.42,0l26-26A1,1,0,0,0,29.71,2.29Z"/></g><text x="0" y="47" fill="#000000" font-size="5px" font-weight="bold" font-family="'Helvetica Neue', Helvetica, Arial-Unicode, Arial, Sans-serif">Created by Rd Syaeful Falach</text><text x="0" y="52" fill="#000000" font-size="5px" font-weight="bold" font-family="'Helvetica Neue', Helvetica, Arial-Unicode, Arial, Sans-serif">from the Noun Project</text></svg>